<svg width="32" height="32" viewBox="0 0 32 32" xmlns="http://www.w3.org/2000/svg">
  <defs>
    <linearGradient id="blueGrad" x1="0%" y1="0%" x2="0%" y2="100%">
      <stop offset="0%" style="stop-color:#7dd3fc;stop-opacity:1" />
      <stop offset="50%" style="stop-color:#3b82f6;stop-opacity:1" />
      <stop offset="100%" style="stop-color:#1e40af;stop-opacity:1" />
    </linearGradient>
    <filter id="glow">
      <feGaussianBlur stdDeviation="1" result="coloredBlur"/>
      <feMerge>
        <feMergeNode in="coloredBlur"/>
        <feMergeNode in="SourceGraphic"/>
      </feMerge>
    </filter>
  </defs>
  
  <!-- Background -->
  <rect width="32" height="32" fill="#1e293b" rx="6"/>
  
  <!-- W Shape - Left part -->
  <path d="M 5 7 Q 6 4 7 7 L 8.5 19 Q 9.5 22 8.5 23 L 7 24 Q 6 23 6 22 Z" 
        fill="url(#blueGrad)" 
        filter="url(#glow)"/>
  
  <path d="M 8.5 8.5 Q 9.5 5.5 10.5 8.5 L 10.5 17.5 Q 10.5 20.5 9.5 20.5 L 9.5 19.5 Q 9.5 16.5 9.5 14.5 Z" 
        fill="url(#blueGrad)" 
        filter="url(#glow)"/>
  
  <!-- W Shape - Right part -->
  <path d="M 18.5 8.5 Q 19.5 5.5 20.5 8.5 L 20.5 17.5 Q 20.5 20.5 19.5 20.5 L 19.5 19.5 Q 19.5 16.5 19.5 14.5 Z" 
        fill="url(#blueGrad)" 
        filter="url(#glow)"/>
  
  <path d="M 24 7 Q 25 4 26 7 L 27.5 19 Q 28.5 22 27.5 23 L 26 24 Q 25 23 25 22 Z" 
        fill="url(#blueGrad)" 
        filter="url(#glow)"/>
  
  <!-- Circuit nodes -->
  <circle cx="6.5" cy="6" r="0.6" fill="#7dd3fc" filter="url(#glow)"/>
  <circle cx="25.5" cy="6" r="0.6" fill="#7dd3fc" filter="url(#glow)"/>
  <circle cx="16" cy="23" r="0.5" fill="#7dd3fc" filter="url(#glow)"/>
</svg>
