<svg width="32" height="32" viewBox="0 0 32 32" fill="none" xmlns="http://www.w3.org/2000/svg">
  <!-- Background with grunge texture effect -->
  <rect width="32" height="32" fill="#F5F5F5"/>
  
  <!-- Grunge texture dots -->
  <circle cx="4" cy="6" r="0.5" fill="#333" opacity="0.3"/>
  <circle cx="28" cy="8" r="0.3" fill="#333" opacity="0.4"/>
  <circle cx="6" cy="28" r="0.4" fill="#333" opacity="0.2"/>
  <circle cx="26" cy="26" r="0.6" fill="#333" opacity="0.3"/>
  <circle cx="12" cy="4" r="0.3" fill="#333" opacity="0.4"/>
  <circle cx="20" cy="30" r="0.4" fill="#333" opacity="0.3"/>
  <circle cx="30" cy="18" r="0.5" fill="#333" opacity="0.2"/>
  <circle cx="2" cy="20" r="0.3" fill="#333" opacity="0.4"/>
  
  <!-- Central purple square with rounded corners -->
  <rect x="10" y="10" width="12" height="12" fill="#6A4E9F" rx="1.5" stroke="white" stroke-width="0.5"/>
  
  <!-- Radial connection lines -->
  <line x1="16" y1="2" x2="16" y2="8" stroke="#6A4E9F" stroke-width="1.5"/>
  <line x1="16" y1="24" x2="16" y2="30" stroke="#6A4E9F" stroke-width="1.5"/>
  <line x1="2" y1="16" x2="8" y2="16" stroke="#6A4E9F" stroke-width="1.5"/>
  <line x1="24" y1="16" x2="30" y2="16" stroke="#6A4E9F" stroke-width="1.5"/>
  
  <!-- Diagonal connection lines -->
  <line x1="4" y1="4" x2="8" y2="8" stroke="#6A4E9F" stroke-width="1.2"/>
  <line x1="24" y1="4" x2="28" y2="8" stroke="#6A4E9F" stroke-width="1.2"/>
  <line x1="4" y1="28" x2="8" y2="24" stroke="#6A4E9F" stroke-width="1.2"/>
  <line x1="24" y1="28" x2="28" y2="24" stroke="#6A4E9F" stroke-width="1.2"/>
  
  <!-- Connection nodes -->
  <circle cx="16" cy="4" r="1.2" fill="#6A4E9F"/>
  <circle cx="16" cy="28" r="1.2" fill="#6A4E9F"/>
  <circle cx="4" cy="16" r="1.2" fill="#6A4E9F"/>
  <circle cx="28" cy="16" r="1.2" fill="#6A4E9F"/>
  <circle cx="6" cy="6" r="0.8" fill="#6A4E9F"/>
  <circle cx="26" cy="6" r="0.8" fill="#6A4E9F"/>
  <circle cx="6" cy="26" r="0.8" fill="#6A4E9F"/>
  <circle cx="26" cy="26" r="0.8" fill="#6A4E9F"/>
  
  <!-- Monitor icon inside the square -->
  <rect x="12.5" y="13" width="7" height="5" fill="white" rx="0.5"/>
  <rect x="13" y="13.5" width="6" height="3.5" fill="#6A4E9F" rx="0.3"/>
  
  <!-- Monitor screen with gears -->
  <rect x="13.5" y="14" width="5" height="2.5" fill="white" rx="0.2"/>
  
  <!-- Gears inside monitor -->
  <circle cx="15" cy="15" r="0.4" fill="#6A4E9F"/>
  <circle cx="17" cy="15" r="0.4" fill="#6A4E9F"/>
  
  <!-- Gear outside monitor -->
  <circle cx="17.5" cy="18.5" r="0.6" fill="#6A4E9F"/>
  
  <!-- Monitor button -->
  <circle cx="15.5" cy="19" r="0.3" fill="#6A4E9F"/>
  
  <!-- Text "ENGENHEIRO WILLY" -->
  <text x="16" y="25" font-family="Arial, sans-serif" font-size="2.5" font-weight="bold" text-anchor="middle" fill="#000">W</text>
</svg>
